PathFileType	4	(X/Y/Z)	T00_JumpTrial_0-2667.trc
DataRate	CameraRate	NumFrames	NumMarkers	Units	OrigDataRate	OrigDataStartFrame	OrigNumFrames
30	30	7	21	m	30	2000	2667
Frame#	Time	RHip			RKnee			RAnkle			RBigToe			RSmallToe			RHeel			LHip			LKnee			LAnkle			LBigToe			LSmallToe			LHeel			Neck			Head			Nose			RShoulder			RElbow			RWrist			LShoulder			LElbow			LWrist		
		X1	Y1	Z1	X2	Y2	Z2	X3	Y3	Z3	X4	Y4	Z4	X5	Y5	Z5	X6	Y6	Z6	X7	Y7	Z7	X8	Y8	Z8	X9	Y9	Z9	X10	Y10	Z10	X11	Y11	Z11	X12	Y12	Z12	X13	Y13	Z13	X14	Y14	Z14	X15	Y15	Z15	X16	Y16	Z16	X17	Y17	Z17	X18	Y18	Z18	X19	Y19	Z19	X20	Y20	Z20	X21	Y21	Z21
2001	66.7	0.28098122782031454	-0.6999751934236828	0.8486194308746317	0.04638463725093913	0.381936356170852	0.998776331639				-0.13486580682643673	0.7172791814909639	0.44358699627038595	-0.07072011904943794	0.6675515473800258	0.3670302507778934	0.02161682550826131	0.4388304541233004	0.25550160460054056	-0.09183222611654143	0.5065622922015317	0.2884315598345543	-0.053270101792800166	-0.09393349187038677	0.9755786843986393	-0.49954015524327094	-1.421176505189978	0.8457764586339607	0.1783906586089167	0.33790710177826133	1.2177939115073286	0.08192364066946314	0.38669111744870227	1.1952560206723017	0.07533496592921468	0.42097249887224564	0.9815622500899145	-0.43716466936893833	-1.3686903198067744	0.7472444068481935				-0.5963469959040688	-1.3671929359417887	0.894415905995639				0.05771451380719399	-0.6006890651295517	0.7890039663867847	-0.06081628945751996	0.050885910957096284	0.7012290995440078	0.024655279256941668	-1.2376717179796428	0.7321114725269161				-0.2775057587931284	-0.46676399713094247	0.7305093911086719
2002	66.73333333333333	0.4103938706757179	-0.7669976769283496	0.8727309235918779	0.04998316765019195	0.3781363779404076	1.0106220414153388				-0.03056066227237445	0.6371850160286894	0.47027931569775727	-0.07493019137120242	0.6542939859425646	0.3797002264913623	-0.04495930409032764	0.42163744364173467	0.29115781109826055	-0.10592281273642609	0.46535210746365535	0.3657266488820748	-0.02165106576978897	-0.12707974289020557	1.002424071032955	-0.6170401559408425	-1.4309280963404187	0.8929398264752946	0.05346440814641791	0.41859472299885336	1.2225444446298057	0.06625198465573524	0.39842206570529026	1.1960961661182983	0.0753433581650087	0.42705807126128836	0.981240572118691	-0.670153996552758	-1.3369263536479432	0.7858002463690786				-0.4217259594005896	-1.3872102675439901	0.9387533187992171				0.35564794930466953	-0.7483284504659103	0.8409073187266917	-0.2434135681310809	0.14047973689699086	0.7949235180524412	-0.07559994768396933	-1.242655639580664	0.753452773313218				0.3029443428351629	-0.7129006894187881	0.8086594251038038
2003	66.76666666666667	0.4905788991941534	-0.7852941718372785	0.8945321735754205	0.03366869359162077	0.37424884626123656	1.0105765248171457				-0.18878211774813192	0.7334108447640538	0.4981579559597023	-0.08776225133584223	0.6339467628905509	0.45682456373251845	-0.054052452914618354	0.40144321005908984	0.3797256189424996	-0.11435751105133223	0.4450269058664296	0.45559648267789454	0.1965027656673561	-0.2208382531893796	1.0328940464515408	-0.4662976915352262	-1.4470302946253522	0.9359594149477686	0.07936208512211962	0.4055567754899828	1.2220195463240182	0.06719780866059324	0.40006577359841894	1.195649525878696	-0.00020635891339468166	0.46990368666802	0.9858925361765282	-0.3922238761683824	-1.3975207468091302	0.8399904722831755				-0.5772620484250568	-1.3857577697157681	0.9806859363155077				0.20027101814467457	-0.6726458240151872	0.8726816040283009	-0.3711100531234684	0.19820338915944097	0.901057756176958	-0.1968173484193977	-1.2293803863003607	0.7807506308272171				-0.09827870972255537	-0.5527605870220416	0.8448706508354611
2004	66.8	0.43053229325428116	-0.7765749285087725	0.9329605439747629	0.03583781245280096	0.39512277500260623	1.0103385123905788				-0.14258660022721154	0.6808724780516252	0.6166337451165006	-0.0944747363176912	0.6092452459345372	0.562101444653286	-0.05038633398498279	0.3803900128326638	0.47079094160512636	-0.11499531644679423	0.42913106322203964	0.5468129888915387	0.18106406546635626	-0.18173270196993457	1.0339843248345375	-0.6788751825417665	-1.4234273193434523	0.9840146224243455	0.16118511868119553	0.3502137312046593	1.216974847275015	0.06875390501849499	0.3970308427065532	1.1959142873909856	0.02257963273892307	0.47283590435587747	0.9873943416949833	-0.602470469090767	-1.3595424314804483	0.8815415008786879				-0.35780527891718716	-1.441325832089687	1.0288538241955616				0.39534277925266476	-0.7539526450806385	0.9207824528234222	-0.09522761410964918	0.012954056842579654	0.9954548651712544	-0.12969912703447523	-1.213261670513637	0.8424848158085475				0.20341641789807155	-0.693888908461414	0.8961126996720858
2005	66.83333333333333	0.41102242767246305	-0.7899389777175482	0.955889660623795	0.034387084160387625	0.3981990376157221	1.009811075055262				-0.19747343985357751	0.6984995539406335	0.7662584973749919	-0.15419808493919204	0.6510952292581631	0.6829764587050311	-0.1063642644076842	0.40054627716276875	0.5743817560072497	-0.17265947063895273	0.44478760253492716	0.6535444657036821	0.1705839216301947	-0.14512376982707637	1.0533813525213431	-0.4101920225038015	-1.4602104950347337	1.0258214957118428	0.09567730646879384	0.38126062793606	1.2136018761716771	0.05192611497453456	0.39748182100965185	1.1957056513600868	0.04912027393143958	0.44284782965626074	0.9797313699678251	-0.4371141426719428	-1.3959337039284936	0.9288632338365682				-0.532547920467788	-1.4089145076451288	1.0704735375098076				0.2441764531816884	-0.7239069270829839	0.9667745415372306	-0.12001725751918584	0.02430738469548554	1.0786197519091323	-0.14093379198944989	-1.2373113788803318	0.8685707415506707				0.1991879854108078	-0.6933314304931151	0.9710971503684868
2006	66.86666666666666	0.3743831593094209	-0.7907745056102462	1.0068986155006374	-0.026354646810598913	0.4394918855156625	1.0038358682681698				-0.11435634955471383	0.6339113503047807	0.8965357757220459	-0.28531209042548633	0.7245142738137955	0.8234303390557959	-0.0981082732454052	0.40196206184464706	0.6791973986972298	-0.15315460611580417	0.43662774397540677	0.7730407916705228	0.34183476558133924	-0.2487810769581469	1.0503521780433138	-0.6674022033995889	-1.419556756304252	1.071071227815085	0.10012452025265162	0.38990111095895236	1.2138467458274684	0.05371363997801527	0.39532650779886075	1.1955099819579893	0.00713000370060926	0.4867399856431989	0.9857504762545857	-0.517360350640994	-1.3790964082229693	0.9624733220496122				-0.46867383142346913	-1.4393901272026	1.113623519312255				0.28760382959643943	-0.7512311831885402	1.012307211158409	-0.3250324420874679	0.09515506020237952	1.1558921297103453	-0.15947537299405062	-1.2092850850916663	0.9271869505491993				0.118454931771063	-0.6637354278676912	0.9898433307580432
2007	66.9	0.33735498486523924	-0.7970170099382313	1.0196574656640502	0.10703466181988668	0.3433961588594253	0.9902724257741439				-0.40304417256597	0.775232111192681	1.083156280465492	-0.4300319682229113	0.8197349662744675	1.0009717235038444	-0.21719152246004508	0.5247343542050031	0.8043378705098496	-0.11462833933341911	0.454791565259151	0.8941455798503933	0.085513496316897	-0.1418411077666626	1.0675709989115565	-0.4465547031317946	-1.461712629135945	1.1156720812602188	0.12562113887311704	0.4184390182868655	1.1996332141517225	0.07283692448551979	0.43723443912875315	1.1795625364185056	0.033595680647585335	0.4068308970627337	0.93257589552989	-0.5462793140954197	-1.3896227105090178	1.000082492278058				-0.46622760649220485	-1.41742141060977	1.1470152726023906				0.23666590352655498	-0.7333940268017682	1.03069138822513	-0.3785571762753392	0.12733785673014747	1.2422032214119225	-0.18920672249776188	-1.2345690918796346	0.9438386835494053				0.10341966413957565	-0.6705256974239309	1.0608221719034527
